<?xml version="1.0" encoding="UTF-8" standalone="no"?>
<!DOCTYPE svg PUBLIC "-//W3C//DTD SVG 1.1//EN" "http://www.w3.org/Graphics/SVG/1.1/DTD/svg11.dtd">
<svg width="100%" height="100%" viewBox="0 0 756 756" version="1.1" xmlns="http://www.w3.org/2000/svg" xmlns:xlink="http://www.w3.org/1999/xlink" xml:space="preserve" xmlns:serif="http://www.serif.com/" style="fill-rule:evenodd;clip-rule:evenodd;stroke-linejoin:round;stroke-miterlimit:2;">
    <g transform="matrix(1,0,0,1,-16535,-1985)">
        <g id="checkmark_off3" transform="matrix(1,0,0,1,-0.125984,0)">
            <rect x="16535.126" y="1985" width="755.906" height="755.906" style="fill:none;"/>
            <g transform="matrix(1,0,0,1,16602.125984,2061)">
                <g transform="matrix(1.610509,0,0,1.612327,-174.306179,24.926545)">
                    <path d="M482.977,163.314C483.959,165.413 483.99,165.387 484.038,165.581C485.647,172.073 486.029,171.954 486.131,172.525C486.48,174.471 486.721,175.963 486.886,177.116C487.427,180.889 487.165,181.028 487.29,181.572C488.721,187.8 488.223,190.588 488.147,209.499C488.116,217.095 486.948,216.963 487.139,224.495C487.212,227.396 484.405,230.37 484.201,232.455C483.831,236.232 482.685,235.82 481.775,239.572C479.106,250.567 467.945,267.785 467.359,268.361C463.539,272.114 464.247,273.53 462.341,275.336C454.917,282.369 452.05,289.272 441.836,294.951C441.013,295.409 441.908,296.48 433.293,302.247C426.549,306.76 426.338,306.397 425.776,306.82C417.968,312.703 400.771,318.979 399.513,319.526C394.145,321.86 394.091,321.571 393.645,321.806C389.593,323.942 384.598,323.971 383.44,324.309C371.307,327.853 368.212,326.859 366.47,327.412C364.561,328.017 359.706,329.558 341.499,329.114C328.861,328.806 329.092,327.306 326.536,327.157C315.364,326.507 315.561,325.57 304.571,323.174C292.524,320.549 263.51,306.331 260.756,303.267C259.008,301.322 258.638,301.915 256.695,300.257C256.134,299.778 255.267,299.038 249.595,294.375C238.039,284.877 220.737,266.188 212.695,243.432C204.714,220.847 206.325,219.698 205.899,208.396C205.765,204.82 200.5,211.171 192.85,216.984C159.542,242.291 131.649,268.429 123.521,270.596C102.746,276.134 97.604,272.18 87.658,262.347C82.452,257.199 83.513,243.801 84.602,240.543C85.031,239.259 88.087,230.108 92.704,225.689C100.806,217.932 101.493,218.88 102.166,218.187C104.646,215.633 104.846,215.958 107.661,213.702C117.013,206.208 117.532,206.951 118.283,206.233C129.138,195.859 130.547,197.736 136.29,192.334C142.387,186.599 161.847,173.606 165.686,169.676C168.234,167.068 168.952,168.18 171.667,165.702C177.517,160.361 177.971,160.947 178.43,160.438C181.833,156.666 182.767,157.879 186.235,154.245C189.471,150.855 193.823,149.921 195.985,146.786C196.113,146.601 204.01,140.336 204.711,139.779C205.388,139.242 209.762,135.772 213.411,133.388C222.705,127.316 222.046,126.547 231.284,120.262C235.449,117.428 227.254,118.173 225.405,117.923C205.556,115.24 192.087,118.11 191.488,118.118C178.735,118.291 172.777,117.727 172.595,117.764C166.24,119.026 164.639,117.586 156.498,117.087C152.282,116.828 141.48,108.45 140.932,102.482C139.565,87.61 146.158,84.43 148.202,82.203C158.861,70.583 175.996,72.052 176.571,71.969C178.479,71.695 295.482,71.869 295.489,71.87C301.576,72.495 301.567,73.267 307.56,71.969C309.939,71.454 318.531,73.117 319.47,71.495C320.434,69.829 298.375,54.097 297.646,53.356C288.624,44.187 286.219,45.557 275.269,34.771C265.248,24.9 273.192,12.158 274.729,10.748C283.265,2.917 289.095,2.863 290.506,2.85C305.321,2.712 305.642,2.551 314.276,7.808C318.372,10.302 320.29,12.753 320.788,13.095C336.313,23.76 379.674,57.255 380.717,58.283C386.592,64.076 432.884,95.831 448.328,110.685C471.55,133.02 470.664,137.527 476.773,148.344C480.786,155.448 479.978,155.729 482.977,163.314Z" style="fill:white;"/>
                </g>
                <path d="M324.69,71.311L325.578,71.422C328.848,73.854 326.314,74.632 324.558,74.681C324.602,73.558 324.646,72.435 324.69,71.311Z" style="fill:white;"/>
                <path d="M346.137,34.95C348.08,35.908 348.055,35.885 349.416,37.613C347.649,36.366 347.7,36.42 346.137,34.95Z" style="fill:white;"/>
                <path d="M224.499,114.59C227.572,114.832 227.508,114.897 230.5,115.453C227.42,115.334 227.395,115.775 224.499,114.59Z" style="fill:white;"/>
                <path d="M237.497,114.545C234.568,115.549 234.597,115.272 231.499,115.428C233.499,115.134 235.498,114.839 237.497,114.545Z" style="fill:white;"/>
                <path d="M165.515,114.818C167.512,114.759 169.509,114.699 171.506,114.64C168.569,115.603 168.6,115.189 165.515,114.818Z" style="fill:white;"/>
                <path d="M308.538,321.378C309.544,321.651 310.549,321.923 311.554,322.195C309.616,322.73 309.62,322.844 309.461,322.773C308.953,322.544 309.047,321.607 308.538,321.378Z" style="fill:white;"/>
                <path d="M210.633,229.465C211.772,231.278 212.051,231.169 211.892,233.369C211.552,232.444 211.843,232.427 211.502,231.499C211.441,231.333 211.438,231.349 210.633,229.465Z" style="fill:white;"/>
                <path d="M175.496,114.627C176.497,114.917 177.499,115.207 178.5,115.497C176.856,115.319 176.985,115.232 175.496,114.627Z" style="fill:white;"/>
                <path d="M323.488,70.514C324.61,70.846 324.562,70.805 325.578,71.422L324.69,71.311C324.289,71.046 323.888,70.78 323.488,70.514Z" style="fill:white;"/>
                <path d="M189.507,114.959L192.504,114.655C191.051,115.149 191.081,115.198 189.507,114.959Z" style="fill:white;"/>
                <path d="M128.598,201.644C127.678,202.287 127.722,202.243 126.62,202.647C126.677,202.609 126.293,202.06 128.598,201.644Z" style="fill:white;"/>
            </g>
        </g>
    </g>
</svg>
