<?xml version="1.0" encoding="UTF-8" standalone="no"?>
<!DOCTYPE svg PUBLIC "-//W3C//DTD SVG 1.1//EN" "http://www.w3.org/Graphics/SVG/1.1/DTD/svg11.dtd">
<svg width="100%" height="100%" viewBox="0 0 756 756" version="1.1" xmlns="http://www.w3.org/2000/svg" xmlns:xlink="http://www.w3.org/1999/xlink" xml:space="preserve" xmlns:serif="http://www.serif.com/" style="fill-rule:evenodd;clip-rule:evenodd;stroke-linejoin:round;stroke-miterlimit:2;">
    <g transform="matrix(1,0,0,1,-10251,0)">
        <g id="Artboard6" transform="matrix(1,0,0,1,-0.125984,0)">
            <rect x="10251.126" y="0" width="755.906" height="755.906" style="fill:none;"/>
            <g transform="matrix(1,0,0,1,0.125984,0)">
                <path d="M10645.805,173.303C10646.069,169.553 10647.639,166.014 10650.241,163.3C10659.949,153.175 10684.609,127.455 10695.016,116.6C10698.051,113.436 10702.245,111.646 10706.629,111.646C10739.613,111.646 10882.23,111.646 10930.564,111.646C10934.831,111.646 10938.924,113.342 10941.941,116.359C10944.958,119.376 10946.653,123.468 10946.653,127.735C10946.653,142.714 10946.653,164.923 10946.653,179.902C10946.653,184.169 10944.958,188.261 10941.941,191.279C10938.924,194.296 10934.831,195.991 10930.564,195.991L10661.468,195.991C10657.005,195.991 10652.742,194.137 10649.699,190.871C10646.656,187.606 10645.106,183.223 10645.42,178.771C10645.557,176.819 10645.689,174.944 10645.805,173.303Z" style="fill:rgb(171,171,171);"/>
            </g>
            <g transform="matrix(1.01343,0,0,1.002179,-146.887056,-1.413138)">
                <path d="M10926.298,168.545C10937.54,168.545 10946.653,177.761 10946.653,189.128C10946.653,267.845 10946.653,549.331 10946.653,628.047C10946.653,639.415 10937.54,648.63 10926.298,648.63C10831.598,648.63 10434.728,648.63 10340.027,648.63C10328.786,648.63 10319.673,639.415 10319.673,628.047C10319.673,549.331 10319.673,267.845 10319.673,189.128C10319.673,177.761 10328.786,168.545 10340.027,168.545C10434.728,168.545 10831.598,168.545 10926.298,168.545Z" style="fill:url(#_Linear1);"/>
            </g>
            <g transform="matrix(1.04023,0,0,0.908623,-425.622379,69.235496)">
                <path d="M10900.68,196.817C10909.141,196.817 10917.255,200.665 10923.237,207.514C10929.22,214.363 10932.581,223.653 10932.581,233.339C10932.581,321.612 10932.581,544.506 10932.581,615.547C10932.581,621.413 10930.546,627.038 10926.923,631.185C10923.3,635.333 10918.387,637.663 10913.264,637.663C10821.762,637.663 10432.573,637.663 10341.072,637.663C10335.948,637.663 10331.035,635.333 10327.412,631.185C10323.79,627.038 10321.754,621.413 10321.754,615.547C10321.754,544.506 10321.754,321.612 10321.754,233.339C10321.754,223.653 10325.115,214.363 10331.098,207.514C10337.081,200.665 10345.195,196.817 10353.655,196.817C10459.04,196.817 10795.296,196.817 10900.68,196.817Z" style="fill:rgb(239,239,239);"/>
            </g>
        </g>
    </g>
    <defs>
        <linearGradient id="_Linear1" x1="0" y1="0" x2="1" y2="0" gradientUnits="userSpaceOnUse" gradientTransform="matrix(626.980065,0,0,480.084709,10319.67288,408.587766)"><stop offset="0" style="stop-color:white;stop-opacity:1"/><stop offset="1" style="stop-color:white;stop-opacity:1"/></linearGradient>
    </defs>
</svg>
