<?xml version="1.0" encoding="UTF-8" standalone="no"?>
<!DOCTYPE svg PUBLIC "-//W3C//DTD SVG 1.1//EN" "http://www.w3.org/Graphics/SVG/1.1/DTD/svg11.dtd">
<svg width="100%" height="100%" viewBox="0 0 756 756" version="1.1" xmlns="http://www.w3.org/2000/svg" xmlns:xlink="http://www.w3.org/1999/xlink" xml:space="preserve" xmlns:serif="http://www.serif.com/" style="fill-rule:evenodd;clip-rule:evenodd;stroke-linejoin:round;stroke-miterlimit:2;">
    <g transform="matrix(1,0,0,1,-9259,0)">
        <g id="Artboard5" transform="matrix(1,0,0,1,-0.125984,0)">
            <rect x="9259.126" y="0" width="755.906" height="755.906" style="fill:none;"/>
            <g transform="matrix(1,0,0,1,0.125984,0)">
                <path d="M9810.937,159.06C9816.72,159.06 9822.265,161.357 9826.354,165.446C9830.443,169.535 9832.74,175.08 9832.74,180.863C9832.74,256.029 9832.74,503.859 9832.74,579.025C9832.74,584.807 9830.443,590.353 9826.354,594.442C9822.265,598.531 9816.72,600.828 9810.937,600.828C9778.265,600.828 9716.958,600.828 9684.286,600.828C9678.503,600.828 9672.958,598.531 9668.869,594.442C9664.78,590.353 9662.483,584.807 9662.483,579.025C9662.483,503.859 9662.483,256.029 9662.483,180.863C9662.483,175.08 9664.78,169.535 9668.869,165.446C9672.958,161.357 9678.503,159.06 9684.286,159.06C9716.958,159.06 9778.265,159.06 9810.937,159.06Z" style="fill:rgb(242,175,13);"/>
            </g>
            <g transform="matrix(1,0,0,1,-219.734252,0)">
                <path d="M9810.937,159.06C9816.72,159.06 9822.265,161.357 9826.354,165.446C9830.443,169.535 9832.74,175.08 9832.74,180.863C9832.74,256.029 9832.74,503.859 9832.74,579.025C9832.74,584.807 9830.443,590.353 9826.354,594.442C9822.265,598.531 9816.72,600.828 9810.937,600.828C9778.265,600.828 9716.958,600.828 9684.286,600.828C9678.503,600.828 9672.958,598.531 9668.869,594.442C9664.78,590.353 9662.483,584.807 9662.483,579.025C9662.483,503.859 9662.483,256.029 9662.483,180.863C9662.483,175.08 9664.78,169.535 9668.869,165.446C9672.958,161.357 9678.503,159.06 9684.286,159.06L9810.937,159.06Z" style="fill:rgb(242,175,13);"/>
            </g>
        </g>
    </g>
</svg>
