<?xml version="1.0" encoding="UTF-8" standalone="no"?><!DOCTYPE svg PUBLIC "-//W3C//DTD SVG 1.1//EN" "http://www.w3.org/Graphics/SVG/1.1/DTD/svg11.dtd"><svg width="756px" height="756px" version="1.1" xmlns="http://www.w3.org/2000/svg" xmlns:xlink="http://www.w3.org/1999/xlink" xml:space="preserve" xmlns:serif="http://www.serif.com/" style="fill-rule:evenodd;clip-rule:evenodd;stroke-linejoin:round;stroke-miterlimit:2;"><g transform="matrix(1,0,0,1,-6283,-2976)"><g id="Artboard13" transform="matrix(1,0,0,1,0,-0.125984)"><rect x="6283" y="2976.126" width="755.906" height="755.906" style="fill:none;"/><g transform="matrix(1.343624,0,0,1,-2312.36032,70.856345)"><path d="M6615.14,3559.804C6615.14,3570.427 6608.731,3579.038 6600.825,3579.038L6514.797,3579.038C6511.001,3579.038 6507.36,3577.012 6504.675,3573.405C6501.99,3569.798 6500.482,3564.906 6500.482,3559.804L6500.482,3158.628L6856.398,3158.628L6856.398,3559.804C6856.398,3564.906 6854.89,3569.798 6852.205,3573.405C6849.52,3577.012 6845.879,3579.038 6842.083,3579.038L6756.055,3579.038C6748.149,3579.038 6741.74,3570.427 6741.74,3559.804L6741.74,3514.19C6741.74,3509.089 6740.232,3504.197 6737.548,3500.59C6734.863,3496.983 6731.222,3494.956 6727.425,3494.956L6629.454,3494.956C6625.658,3494.956 6622.017,3496.983 6619.332,3500.59C6616.648,3504.197 6615.14,3509.089 6615.14,3514.19C6615.14,3527.858 6615.14,3546.137 6615.14,3559.804Z" style="fill:white;"/></g><g transform="matrix(1.334921,0,0,1,-2230.8928,0.125984)"><path d="M6645,3019.942C6653.96,3008.674 6667.945,3008.674 6676.906,3019.942C6721.113,3075.534 6845.256,3231.646 6895.842,3295.258C6899.399,3299.731 6900.551,3306.649 6898.748,3312.712C6896.946,3318.775 6892.554,3322.756 6887.667,3322.756C6796.74,3322.756 6525.166,3322.756 6434.238,3322.756C6429.351,3322.756 6424.96,3318.775 6423.157,3312.712C6421.355,3306.649 6422.507,3299.731 6426.064,3295.258C6476.649,3231.646 6600.792,3075.534 6645,3019.942Z" style="fill:white;"/></g></g></g></svg>