<?xml version="1.0" encoding="UTF-8" standalone="no"?>
<!DOCTYPE svg PUBLIC "-//W3C//DTD SVG 1.1//EN" "http://www.w3.org/Graphics/SVG/1.1/DTD/svg11.dtd">
<svg width="100%" height="100%" viewBox="0 0 6048 6048" version="1.1" xmlns="http://www.w3.org/2000/svg" xmlns:xlink="http://www.w3.org/1999/xlink" xml:space="preserve" xmlns:serif="http://www.serif.com/" style="fill-rule:evenodd;clip-rule:evenodd;stroke-linejoin:round;stroke-miterlimit:2;">
    <g transform="matrix(1,0,0,1,0,-12566.464567)">
        <rect id="Artboard9" x="0" y="12566.465" width="6047.244" height="6047.244" style="fill:none;"/>
        <g id="Artboard91" serif:id="Artboard9">
            <g transform="matrix(2.303978,0,0,2.587889,-1257.977936,9362.442246)">
                <path d="M2041.963,1687.092L1858.351,3124.998L2626.962,3125.914L2714.381,2940.533L2083.943,2940.533L2264.235,1687.001L2041.963,1687.092Z" style="fill:rgb(0,122,166);"/>
            </g>
            <g transform="matrix(1,0,0,1,158.088179,6283.464567)">
                <path d="M927.759,9472.998L1164.554,7444.748L3160.417,7444.748L3119.075,7798.866L1519.525,7798.866L1364.896,9123.329L2964.445,9123.329L2725.675,11168.496L729.812,11168.496L773.129,10797.462L2281.933,10797.462L2436.562,9472.998L927.759,9472.998Z" style="fill:url(#_Linear1);"/>
            </g>
            <g transform="matrix(1.196581,0,0,1,2423.36469,8428.271469)">
                <path d="M2206.163,8391.187L1054.059,8391.187L1144.691,7593.94L2487.665,7593.94L2206.163,8391.187Z" style="fill:rgb(55,152,255);fill-opacity:0.27;"/>
            </g>
            <g transform="matrix(1.012542,0,0,1,2690.447552,7745.655888)">
                <path d="M1102.245,8391.187L1073.723,8391.187L1073.723,8276.555L1194.269,8276.555L1102.245,8391.187ZM1278.819,8276.555L1370.639,8276.555L1278.614,8391.187L1186.795,8391.187L1278.819,8276.555ZM1455.188,8276.555L1547.008,8276.555L1454.984,8391.187L1363.164,8391.187L1455.188,8276.555ZM1631.558,8276.555L1723.378,8276.555L1631.353,8391.187L1539.534,8391.187L1631.558,8276.555ZM1807.927,8276.555L1899.747,8276.555L1807.723,8391.187L1715.903,8391.187L1807.927,8276.555ZM1984.297,8276.555L2076.117,8276.555L1984.092,8391.187L1892.273,8391.187L1984.297,8276.555ZM2160.666,8276.555L2252.486,8276.555L2160.462,8391.187L2068.642,8391.187L2160.666,8276.555ZM2337.036,8276.555L2676.047,8276.555L2627.769,8390.204L2245.012,8391.187L2337.036,8276.555Z" style="fill:rgb(55,152,255);fill-opacity:1;"/>
            </g>
            <g transform="matrix(0.888377,-0.485827,0.479809,0.877373,-1184.888897,9151.18771)">
                <path d="M1102.245,8391.187L1054.059,8391.187L1073.123,8276.555L1194.269,8276.555L1102.245,8391.187ZM1278.819,8276.555L1370.639,8276.555L1278.614,8391.187L1186.795,8391.187L1278.819,8276.555ZM1455.188,8276.555L1547.008,8276.555L1454.984,8391.187L1363.164,8391.187L1455.188,8276.555ZM1631.558,8276.555L1723.378,8276.555L1631.353,8391.187L1539.534,8391.187L1631.558,8276.555ZM1807.927,8276.555L1899.747,8276.555L1807.723,8391.187L1715.903,8391.187L1807.927,8276.555ZM1984.297,8276.555L2076.117,8276.555L1984.092,8391.187L1892.273,8391.187L1984.297,8276.555ZM2160.666,8276.555L2252.486,8276.555L2160.462,8391.187L2068.642,8391.187L2160.666,8276.555ZM2337.036,8276.555L2472.456,8276.555L2457.194,8391.187L2245.012,8391.187L2337.036,8276.555Z" style="fill:rgb(55,152,255);fill-opacity:1;"/>
            </g>
            <g transform="matrix(1.158334,0,0,1,2536.126642,7745.655888)">
                <path d="M1071.807,8391.187L1073.123,8276.555L2472.456,8276.555L2430.46,8391.187L1071.807,8391.187Z" style="fill:rgb(55,152,255);fill-opacity:0.27;"/>
            </g>
            <g transform="matrix(0.888377,-0.485827,0.479809,0.877373,-1184.888897,9151.18771)">
                <path d="M1054.059,8391.187L1073.123,8276.555L2472.456,8276.555L2457.194,8391.187L1054.059,8391.187Z" style="fill:rgb(55,152,255);fill-opacity:0.27;"/>
            </g>
        </g>
    </g>
    <defs>
        <linearGradient id="_Linear1" x1="0" y1="0" x2="1" y2="0" gradientUnits="userSpaceOnUse" gradientTransform="matrix(2430.605758,0,0,3723.74831,729.811524,9306.622047)"><stop offset="0" style="stop-color:white;stop-opacity:1"/><stop offset="1" style="stop-color:rgb(0,122,166);stop-opacity:1"/></linearGradient>
    </defs>
</svg>
