<?xml version="1.0" encoding="UTF-8" standalone="no"?>
<!DOCTYPE svg PUBLIC "-//W3C//DTD SVG 1.1//EN" "http://www.w3.org/Graphics/SVG/1.1/DTD/svg11.dtd">
<svg width="100%" height="100%" viewBox="0 0 756 756" version="1.1" xmlns="http://www.w3.org/2000/svg" xmlns:xlink="http://www.w3.org/1999/xlink" xml:space="preserve" xmlns:serif="http://www.serif.com/" style="fill-rule:evenodd;clip-rule:evenodd;stroke-linejoin:round;stroke-miterlimit:2;">
    <g transform="matrix(1,0,0,1,-9259,-1984)">
        <g id="Artboard12" transform="matrix(1,0,0,1,-0.125984,0)">
            <rect x="9259.126" y="1984" width="755.906" height="755.906" style="fill:none;"/>
            <g transform="matrix(1,0,0,1,0.125984,0)">
                <path d="M9538.647,2541.521L9565.898,2537.112C9565.898,2537.112 9530.483,2438.408 9486.949,2384.825C9466.515,2359.673 9480.664,2295.746 9479.398,2232.169C9477.967,2160.365 9486.148,2062.215 9486.148,2062.215C9486.148,2062.215 9572.364,2033.373 9571.509,2061.814C9569.906,2115.115 9563.093,2288.242 9563.093,2288.242L9604.371,2305.875C9604.371,2305.875 9665.81,2072.891 9700.152,2037.368C9712.894,2024.188 9800.525,2044.115 9787.918,2073.073C9760.934,2135.057 9677.71,2344.348 9677.71,2344.348L9710.171,2361.953C9710.171,2361.953 9786.515,2215.834 9880.893,2134.351C9902.72,2115.507 9966.838,2174.487 9944.614,2192.862C9890.244,2237.813 9775.895,2413.679 9775.895,2413.679L9802.345,2444.537L9956.436,2332.726C9956.436,2332.726 10005.147,2354.283 9990.501,2402.458C9977.862,2444.03 9892.076,2457.344 9808.834,2547.625C9702.974,2662.437 9680.216,2688.302 9610.583,2688.599C9549.885,2688.857 9487.083,2689.333 9448.276,2606.043C9429.9,2566.603 9399.384,2485.014 9399.384,2485.014C9399.384,2485.014 9372.268,2426.64 9299.276,2337.424L9297.992,2335.531C9297.992,2335.531 9303.026,2295.539 9338.869,2292.65C9387.204,2288.754 9447.781,2366.862 9514.401,2472.19C9537.722,2509.061 9538.647,2541.521 9538.647,2541.521Z" style="fill:white;"/>
                <path d="M9538.647,2541.521L9565.898,2537.112C9565.898,2537.112 9530.483,2438.408 9486.949,2384.825C9466.515,2359.673 9480.664,2295.746 9479.398,2232.169C9477.967,2160.365 9486.148,2062.215 9486.148,2062.215C9486.148,2062.215 9572.364,2033.373 9571.509,2061.814C9569.906,2115.115 9563.093,2288.242 9563.093,2288.242L9604.371,2305.875C9604.371,2305.875 9665.81,2072.891 9700.152,2037.368C9712.894,2024.188 9800.525,2044.115 9787.918,2073.073C9760.934,2135.057 9677.71,2344.348 9677.71,2344.348L9710.171,2361.953C9710.171,2361.953 9786.515,2215.834 9880.893,2134.351C9902.72,2115.507 9966.838,2174.487 9944.614,2192.862C9890.244,2237.813 9775.895,2413.679 9775.895,2413.679L9802.345,2444.537L9956.436,2332.726C9956.436,2332.726 10005.147,2354.283 9990.501,2402.458C9977.862,2444.03 9892.076,2457.344 9808.834,2547.625C9702.974,2662.437 9680.216,2688.302 9610.583,2688.599C9549.885,2688.857 9487.083,2689.333 9448.276,2606.043C9429.9,2566.603 9399.384,2485.014 9399.384,2485.014C9399.384,2485.014 9372.268,2426.64 9299.276,2337.424L9297.992,2335.531C9297.992,2335.531 9303.026,2295.539 9338.869,2292.65C9387.204,2288.754 9447.781,2366.862 9514.401,2472.19C9537.722,2509.061 9538.647,2541.521 9538.647,2541.521ZM9305.022,2333.92C9378.255,2423.565 9405.43,2482.205 9405.43,2482.205C9405.502,2482.36 9405.568,2482.518 9405.628,2482.678C9405.628,2482.678 9436.016,2563.945 9454.319,2603.227C9491.601,2683.245 9552.242,2682.18 9610.554,2681.932C9650.554,2681.762 9674.363,2672.693 9708.929,2641.791C9732.887,2620.374 9761.787,2588.816 9803.933,2543.105C9854.425,2488.344 9905.796,2461.53 9941.611,2439.814C9963.455,2426.57 9979.447,2415.898 9984.122,2400.519C9994.879,2365.137 9966.934,2346.024 9957.051,2340.517L9806.26,2449.933C9803.449,2451.973 9799.543,2451.513 9797.283,2448.876L9770.833,2418.018C9768.908,2415.771 9768.693,2412.525 9770.306,2410.045C9770.306,2410.045 9885.603,2233 9940.366,2187.724C9942.791,2185.719 9942.916,2182.727 9942.134,2179.467C9940.898,2174.314 9937.455,2168.642 9932.924,2163.138C9924.246,2152.596 9911.48,2142.774 9900.011,2138.912C9894.239,2136.969 9888.879,2136.264 9885.25,2139.397C9791.701,2220.164 9716.08,2365.04 9716.08,2365.04C9715.253,2366.623 9713.825,2367.808 9712.117,2368.329C9710.409,2368.85 9708.563,2368.665 9706.993,2367.813L9674.531,2350.208C9671.563,2348.598 9670.267,2345.023 9671.515,2341.885C9671.515,2341.885 9754.801,2132.441 9781.805,2070.412C9783.248,2067.098 9782.094,2064.053 9779.75,2061.262C9776.188,2057.022 9770.275,2053.384 9763.394,2050.274C9749.926,2044.187 9732.759,2040.38 9719.617,2039.929C9715.565,2039.79 9711.926,2039.966 9708.966,2040.551C9707.21,2040.899 9705.739,2041.181 9704.945,2042.002C9694.985,2052.304 9682.935,2079.916 9670.571,2113.344C9640.823,2193.772 9610.817,2307.575 9610.817,2307.575C9610.323,2309.448 9609.039,2311.014 9607.298,2311.865C9605.558,2312.716 9603.534,2312.767 9601.752,2312.006L9560.474,2294.373C9557.931,2293.286 9556.323,2290.743 9556.431,2287.98C9556.431,2287.98 9563.243,2114.9 9564.845,2061.614C9564.906,2059.584 9563.678,2058.411 9561.903,2057.654C9559.535,2056.644 9556.515,2056.19 9553.109,2056.016C9533.643,2055.025 9503.425,2063.767 9492.437,2067.195C9490.885,2087.038 9484.818,2169.553 9486.063,2232.036C9486.823,2270.193 9482.034,2308.477 9482.494,2338.432C9482.773,2356.58 9484.694,2371.476 9492.123,2380.621C9536.226,2434.904 9572.173,2534.861 9572.173,2534.861C9572.843,2536.726 9572.647,2538.793 9571.64,2540.5C9570.633,2542.207 9568.919,2543.377 9566.963,2543.693L9539.711,2548.102C9537.815,2548.409 9535.879,2547.882 9534.398,2546.658C9532.918,2545.434 9532.038,2543.631 9531.983,2541.71C9531.983,2541.71 9530.969,2510.856 9508.767,2475.753C9469.165,2413.142 9431.783,2360.191 9397.819,2328.721C9376.683,2309.137 9357.285,2297.854 9339.405,2299.295C9313.632,2301.373 9306.619,2325.99 9305.022,2333.92Z" style="fill:white;"/>
            </g>
        </g>
    </g>
</svg>
